<svg xmlns="http://www.w3.org/2000/svg" xmlns:xlink="http://www.w3.org/1999/xlink" id="Layer_1" x="0px" y="0px" viewBox="0 0 1000 900" style="enable-background:new 0 0 1000 900;" xml:space="preserve"><style type="text/css">	.st0{fill:#FFFFFF;}	.st1{fill:#FF5E5B;}	.st2{fill:url(#SVGID_1_);}</style><g id="Layer_1-2">	<g id="Layer_1-3">		<g>			<path class="st0" d="M773.1,485.3c-35.5,3.9-65,1.9-65,1.9V265h45.3c29.5,0,57.1,11.8,76.6,35.5c13.7,15.8,23.7,37.4,23.6,68.9    C853.7,442.1,816.4,471.6,773.1,485.3L773.1,485.3z M963.9,330c-13.7-68.9-49.2-112.1-88.5-137.7    c-39.3-27.6-86.6-41.3-133.7-41.3L65,151c-23.7,0-33.4,23.7-33.4,35.5v7.9c0,0-1.9,299,1.9,460.3C39.2,749,133.7,749,133.7,749    s308.8,0,458.2-1.9c7.9,0,13.7,0,21.6-1.9C698.1,723.7,706,645,706,601.6C875.3,609.2,995.3,489.2,963.9,330L963.9,330z"></path>			<g>				<path d="M988.4,325.3L988.4,325.3l0-0.2l0-0.2c-16.8-84.2-63-129.9-98.9-153.3c-42-29.4-94.5-45.6-147.7-45.6L65,126     c-38.1,0-58.3,35.1-58.3,60.4v7.7c0,3-1.9,301.1,1.9,461c0,0.3,0,0.6,0,1c3.8,60.8,38.1,89.8,66.3,103.5     c29.1,14.1,57.6,14.3,58.8,14.3h0.1c12.7,0,311.7,0,458.2-1.9c8.5,0,16.6,0,27.3-2.6l0.4-0.1c44.6-11.4,76.4-37.5,94.4-77.6     c8.5-18.9,13.7-40.3,15.7-65.1c40.9-1,79.4-9.1,114.4-24.1c36.9-15.7,68.2-38.3,92.9-67C985.8,479.3,1004,404.6,988.4,325.3     L988.4,325.3z M58.3,653.5c-3.7-157.1-1.9-446.9-1.9-459.2v-7.7c0.1-0.7,1.9-10.7,8.5-10.7l676.8,0c43.2,0,85.6,13.1,119.4,36.8     c0.3,0.2,0.5,0.3,0.7,0.5c40.7,26.5,66.8,67.4,77.6,121.6c12.6,64-1.6,123.8-40,168.4c-43.3,50.3-113.4,77.1-192.4,73.5     c-6.8-0.3-13.4,2.2-18.3,6.9c-4.9,4.7-7.7,11.2-7.7,18c0,67.7-24.1,106.8-73.4,119.5c-4.9,1.2-8.4,1.2-15.5,1.2h-0.5     c-130,1.6-381.3,1.8-455.2,1.9h-2.7c-0.2,0-18.7-0.4-37.2-9.3C73.1,703.4,60.2,682.8,58.3,653.5L58.3,653.5z"></path>				<path d="M706.4,512c0.9,0.1,9,0.6,21.6,0.6c16.3,0,32.4-0.9,47.9-2.6c1.6-0.2,3.2-0.5,4.8-1c65-20.6,98-67.6,98-139.6     c0-33.8-10-62.4-29.5-85c-23.7-28.6-57.7-44.3-95.7-44.3h-45.3c-13.7,0-24.9,11.2-24.9,24.9v222.2     C683.2,500.2,693.4,511.1,706.4,512L706.4,512z M733.1,462.8V289.9h20.4c22.9,0,43.3,9.4,57.5,26.5l0.4,0.5     c11.8,13.6,17.5,30.7,17.5,52.5c0,49.7-18.2,77.1-60.9,91.4C756.8,462,745.1,462.6,733.1,462.8L733.1,462.8z"></path>			</g>		</g>		<path class="st1" d="M363.9,622.9c7.9,3.9,11.8,0,11.8,0s108.2-98.4,157.4-155.3c43.2-51.1,45.3-135.8-27.6-167.1   c-74.7-31.5-135.8,37.4-135.8,37.4c-53.1-59-133.7-55-171.1-15.8s-23.7,106.3,3.9,145.5c25.5,35.5,139.7,137.7,157.4,153.4   C360,619,362,621.1,363.9,622.9L363.9,622.9z"></path>					<linearGradient id="SVGID_1_" gradientUnits="userSpaceOnUse" x1="258.7669" y1="-2861.7832" x2="386.032" y2="-2471.2275" gradientTransform="matrix(1 0 0 1 4.1 2922.5898)">			<stop offset="0" style="stop-color:#FF4EA3"></stop>			<stop offset="1" style="stop-color:#FF5E5B"></stop>		</linearGradient>		<path class="st2" d="M367.6,625.8c4.4,0.9,8.2-2.9,8.2-2.9s108.2-98.4,157.4-155.3c43.2-51.1,45.3-135.8-27.6-167.1   c-74.7-31.5-135.8,37.4-135.8,37.4c-53.1-59-133.7-55-171.1-15.8s-23.7,106.3,3.9,145.5c24.1,33.4,144.8,142.1,159.8,155.6   C363.9,624.5,365.7,625.6,367.6,625.8L367.6,625.8z"></path>	</g></g></svg>